PathFileType	4	(X/Y/Z)	Patient4_TMGait_0pt6_01_left_44.trc.trc
DataRate	CameraRate	NumFrames	NumMarkers	Units	OrigDataRate	OrigDataStartFrame	OrigNumFrames
82.840236686391	82.840236686391	6	33	mm	82.840236686391	53	       141
Frame#	Time	Sacral			L.Shoulder			Chest			R.Shoulder			Neck			R.ASIS			L.ASIS			R.Thigh.Superior			R.Thigh.Lateral			R.Thigh.Inferior			R.Patella			L.Thigh.Superior			L.Thigh.Lateral			L.Thigh.Inferior			L.Patella			L.Shank.Superior			L.Shank.Lateral			L.Shank.Inferior			R.Shank.Superior			R.Shank.Lateral			R.Shank.Inferior			R.Heel			R.Midfoot.Superior			R.Midfoot.Lateral			R.Toe			L.Heel			L.Midfoot.Lateral			L.Midfoot.Superior			L.Toe			L.Elbow			L.Wrist			R.Elbow			R.Wrist			
		X1	Y1	Z1	X2	Y2	Z2	X3	Y3	Z3	X4	Y4	Z4	X5	Y5	Z5	X6	Y6	Z6	X7	Y7	Z7	X8	Y8	Z8	X9	Y9	Z9	X10	Y10	Z10	X11	Y11	Z11	X12	Y12	Z12	X13	Y13	Z13	X14	Y14	Z14	X15	Y15	Z15	X16	Y16	Z16	X17	Y17	Z17	X18	Y18	Z18	X19	Y19	Z19	X20	Y20	Z20	X21	Y21	Z21	X22	Y22	Z22	X23	Y23	Z23	X24	Y24	Z24	X25	Y25	Z25	X26	Y26	Z26	X27	Y27	Z27	X28	Y28	Z28	X29	Y29	Z29	X30	Y30	Z30	X31	Y31	Z31	X32	Y32	Z32	X33	Y33	Z33	

53	54.127714285714	761.721850311720	1013.423157508128	420.751000020369	932.097365229006	1444.218916864088	246.963187060629	1035.320509672858	1372.947844345195	406.728341317354	951.573814945711	1443.126212967732	580.076517026440	909.359710673327	1500.674195814927	402.172708310973	984.868254425157	949.559491608649	541.276392928081	978.590342499923	966.844155143918	267.154031483853	1067.748266950718	777.225505617292	511.216548988709	1025.878401414109	655.886782108502	581.329193974490	1116.815600552467	617.060970240799	502.903868773780	1134.110888033218	501.582966756330	523.200829160792	1020.569466903307	750.088951132067	297.743205980106	925.702883038324	638.368951163559	240.891691881895	1004.649013352849	557.181121058567	305.557581665044	1001.105717551079	487.876850913783	317.743954772766	973.766591609953	417.229855608219	310.043163045072	883.728249280790	304.631035215193	256.809300765254	927.560344744400	193.434349393434	332.767592514630	1053.648678547845	429.558602483121	528.597536232225	929.482832296053	396.576767145793	587.106414680868	909.022820723596	289.677092644910	536.977157975459	705.135568124073	240.218788089070	506.472193996233	868.989714749048	170.402065050130	546.559795102337	759.894954791285	176.976942210596	579.881036558494	926.930576219094	54.604972845954	574.397268636976	794.046770074657	38.645762532223	369.648364789772	871.613563574208	35.349815131709	292.308951241440	953.648269309652	96.149625644572	322.317154633175	1083.523540849601	42.623929959379	300.178907775188	909.585452879351	1090.757565497492	126.711940182583	984.993463291326	841.981432993979	131.624021739645	1015.440921945879	1095.783405584985	683.578497816563	1260.256121647095	1070.040906086886	629.274149590908	
54	54.139785714286	760.449889158300	1013.861073820379	419.186742005809	932.714495620591	1444.629313085417	246.422982114638	1034.479238695716	1373.339893223630	407.005077574945	949.166940266575	1443.155417196875	579.818066091025	908.699966377693	1500.993475375841	401.646418627300	983.343437957443	950.592321618638	541.236012926498	978.402814011875	967.109755185704	267.039762621156	1069.025910003928	781.393661630785	510.385517514551	1030.300073508462	659.335937852831	580.852296864953	1121.587808694452	622.296845777387	501.960612313191	1141.698478681591	507.233257979381	522.327093549308	1018.096128710141	749.163351345274	298.830119007868	922.438315971270	638.329245362850	240.755220322214	999.654916216949	556.341023720381	306.359915814753	995.091524259455	487.222664416926	318.543247455253	967.783775799195	416.909987970593	310.452009060403	877.618760831974	304.594706273389	256.860420899803	920.730201718512	193.282970405265	333.035742462066	1063.068774894142	433.372708042428	527.950168017148	940.188023544433	396.915184445698	586.904520146383	922.406029269449	289.545159129461	536.698236869517	719.805987126204	234.233220284512	507.108640522013	885.778765801505	169.235034040575	546.060070796854	776.798246029311	172.509937874910	580.075883535080	947.223344981387	55.376783537986	573.398963197552	786.719741180784	38.641034718353	369.636750640887	864.327769705240	35.356878187001	292.316951299180	946.381926271374	96.143234259313	322.378762070262	1076.241893368726	42.565359918332	300.187132177096	915.089843969887	1091.435404506901	124.501678911130	997.829064963591	844.921867861551	129.410309311892	1001.791839593587	1093.453601487611	683.964985164580	1245.626597310377	1048.891412443357	633.638000723727	
55	54.151857142857	759.271457129327	1014.138265440730	417.818658348587	933.333079410173	1444.943937324779	246.010440602894	1033.680194824971	1373.610764698879	407.363114820306	946.837114137167	1443.006762066288	579.668055657518	908.092943526195	1501.176575413480	401.280545261759	981.939392445429	951.492709521635	541.218962337772	978.213384053729	967.252169717150	266.987783649678	1070.105035971178	785.224105821248	509.666956342341	1034.314249279929	662.545076100533	580.508301729583	1125.785482262591	627.115516444392	501.103217324492	1148.558306547189	512.680929488748	521.581426486546	1015.647108824275	748.208783228710	300.021461678974	919.260709169351	638.231590929298	240.626165768348	994.740421041584	555.463115845068	307.152583812217	989.206959008508	486.536660903424	319.281275616404	961.903551449872	416.523419588833	310.840036619465	871.574881144599	304.517198094341	256.905673064718	913.911103496392	193.086589716263	333.296597445551	1072.134587519285	436.890853055418	527.473494902261	950.930469808155	396.377671500337	587.031716005414	936.315234529130	288.536132753513	536.725230572619	735.411379390532	226.482555808391	508.305585798298	903.713558488649	167.083116389925	545.895845368334	794.948614637420	166.569363610961	580.751193402910	969.160434847969	55.511342198260	572.619946870787	779.401862456868	38.626786761387	369.628207188724	857.041090646951	35.353765333724	292.327922834317	939.112196567782	96.129839693512	322.447427614891	1068.964262015539	42.506223494787	300.207144698248	920.524727103666	1092.121463124614	122.469776623584	1011.350069564843	848.360765900233	127.535344640210	988.211203704469	1091.475841783277	684.570276117370	1229.485248380242	1027.767551570492	638.086603104532	
56	54.163928571429	758.211376458671	1014.230004399088	416.654509740614	933.937724188977	1445.143084039198	245.733282379225	1032.927757743947	1373.743945197703	407.800630027438	944.611754359135	1442.671702742251	579.633583229646	907.544241203917	1501.217089756935	401.074400728729	980.666194855197	952.233010208161	541.218792895902	978.052124388579	967.274328530562	266.977860481898	1070.982408256319	788.633045282616	509.042084897531	1037.888339675640	665.434221063576	580.289024881466	1129.373750189370	631.408562895274	500.326172989045	1154.635135144161	517.822497282075	520.963775699964	1013.250929825356	747.217686656785	301.218072131909	916.152771296647	638.072967012972	240.494682650056	989.917354583742	554.546140739503	307.882893676937	983.470649937120	485.821224747687	319.921062802311	956.135217991776	416.067035182638	311.183836899504	865.595774374520	304.397320567946	256.935662912737	907.109014564655	192.844977517062	333.537224366644	1080.775929010977	440.063228915525	527.170574585339	961.659130098825	395.012213908190	587.464337993044	950.673729208827	286.745496061192	537.045016984729	751.972195473808	217.180424115218	509.963994836537	922.669951212062	164.126830091533	546.086903579637	814.269313155572	159.411749251857	581.871503016221	992.514840855216	55.195674518027	572.162598526359	772.097138029892	38.605992399531	369.617738574982	849.754990129886	35.341297314244	292.339266552542	931.841373904857	96.107567037609	322.519374988578	1061.692172189341	42.443664514957	300.235347156954	925.860478937502	1092.782618858784	120.631364745275	1025.458623350200	852.335612375747	125.996268720897	974.828196818861	1089.831552718397	685.371788205892	1211.851102659262	1006.845905707983	642.562846742209	
57	54.176000000000	757.288859504224	1014.125497078267	415.694635866287	934.510481272109	1445.217199707259	245.599956442892	1032.226057598951	1373.733310362026	408.315740726682	942.518881582676	1442.155248225135	579.719278593312	907.054534714374	1501.118485531518	401.023495757245	979.534323292435	952.796667178974	541.237290187197	977.952355697304	967.188540579971	266.991373271448	1071.649280627433	791.545305845839	508.500145405061	1040.978744057217	667.930592571310	580.187656533293	1132.315800367088	635.081227554953	499.633405827804	1159.883647706354	522.566177754139	520.476283204450	1010.931718428056	746.182468219058	302.334423837872	913.098255250574	637.854026872204	240.355563319135	985.195118354589	553.593329035479	308.513971121722	977.892151787494	485.080935431990	320.442899818036	950.481322472973	415.544123069576	311.470410994258	859.678197879207	304.238750771305	256.946692865270	900.330094248739	192.561779750300	333.749884027296	1088.922088021015	442.853793780051	527.043122319024	972.318176656625	392.885829927864	588.169799725865	965.398683772617	284.290615335531	537.631938572609	769.504038853242	206.555303560644	511.962537816564	942.517339893810	160.573158922026	546.629425901214	834.679983387851	151.306821331824	583.372873238010	1017.058835322796	54.670988894661	572.095453448956	764.807741945011	38.583439222598	369.600704401769	842.470597642162	35.321433506667	292.349187640603	924.571796276799	96.075451823668	322.591584178640	1054.426045638721	42.374813871404	300.268282119680	931.076128951888	1093.393079308896	119.004177158401	1040.045252167641	856.887444623206	124.789365347768	961.758350699225	1088.494956998425	686.327301757295	1192.759242854633	986.295550127570	647.014357211383	
58	54.188071428571	756.516782378220	1013.827444822255	414.931250711924	935.033619467863	1445.166528272609	245.618379822450	1031.579653357957	1373.582189831070	408.906315533815	940.585827576622	1441.474082727856	579.927163642090	906.620040190352	1500.891877763244	401.120536730586	978.554055596603	953.176181221217	541.284186049551	977.943273802003	967.011374345583	267.015935112922	1072.093477754786	793.896190430544	508.041374585723	1043.532975858971	669.968993677940	580.201143774254	1134.576956719028	638.054890266733	499.041032147328	1164.270607333654	526.833504290252	520.124685788106	1008.705393072709	745.097115408911	303.307866331277	910.083096568495	637.579871000863	240.207283868665	980.578049590085	552.611284134683	309.025652077452	972.471027862642	484.321973461864	320.841823578238	944.937263247462	414.963762605083	311.695216244079	853.816191051552	304.049436648588	256.939143724384	893.579308567585	192.243719475712	333.931055793735	1096.504314492750	445.238858406727	527.091194349277	982.847449425180	390.078769169361	589.109328406279	980.398572377929	281.303219719760	538.448989627996	788.006989706859	194.847600424683	514.168426658657	963.114701753129	156.641703274693	547.493700929488	856.089011952675	142.524925869104	585.166133595322	1042.558504244435	54.204118025294	572.443823874465	757.533853477656	38.565210107745	369.573754116793	835.188744424372	35.297215587931	292.356704731067	917.305868034378	96.033444773541	322.661645522304	1047.165292120521	42.297006400766	300.302872299020	936.157906767193	1093.936220391474	117.606699032109	1054.991003565945	862.059495838687	123.910284866626	949.101042689178	1087.434717869169	687.375865193709	1172.261506096222	966.282243735530	651.399164976210	
